<svg xmlns="http://www.w3.org/2000/svg" width="1200" height="900" viewBox="0 0 1200 900" style="font-family: Microsoft YaHei, sans-serif;"><defs><marker id="arrow" markerWidth="10" markerHeight="10" refX="9" refY="3" orient="auto"><path d="M0,0 L0,6 L9,3 z" fill="#666" /></marker><filter id="shadow" x="-20%" y="-20%" width="140%" height="140%"><feGaussianBlur in="SourceAlpha" stdDeviation="3"/><feOffset dx="2" dy="2" result="offsetblur"/><feComponentTransfer><feFuncA type="linear" slope="0.3"/></feComponentTransfer><feMerge><feMergeNode/><feMergeNode in="SourceGraphic"/></feMerge></filter></defs><rect width="1200" height="900" fill="#ffffff"/><text x="50" y="70" font-size="18" font-weight="bold" fill="#333">外部环境 (Air-Gap Environment)</text><rect x="500.0" y="50" width="200" height="60" rx="5" ry="5" fill="#eeeeee" stroke="#999999" stroke-width="1.5"/><text x="600.0" y="75.0" text-anchor="middle" font-size="14" font-weight="bold" fill="#333333">💾 离线硬盘</text><text x="600.0" y="95.0" text-anchor="middle" font-size="10" fill="#555">Data Ferry by Admin</text><rect x="100.0" y="150" width="1000" height="400" rx="15" fill="#e3f2fd" stroke="#2196f3" stroke-width="1" stroke-dasharray="5,5"/><text x="120.0" y="180" font-size="18" font-weight="bold" fill="#2196f3">物理基础设施层 (Physical Infrastructure)</text><rect x="150.0" y="210" width="400" height="300" rx="10" ry="10" fill="#ffffff" stroke="#2196f3" stroke-width="2" filter="url(#shadow)"/><text x="350.0" y="235" text-anchor="middle" font-size="16" font-weight="bold" fill="#333333">🖥️ Ops Server (PVE/ESXi)</text><text x="350.0" y="255" text-anchor="middle" font-size="12" fill="#555">Virtualization Host</text><rect x="200.0" y="270" width="300" height="80" rx="5" ry="5" fill="#e8f5e9" stroke="#4caf50" stroke-width="1.5"/><text x="350.0" y="305.0" text-anchor="middle" font-size="14" font-weight="bold" fill="#333333">VM 1: Windows Server</text><text x="350.0" y="325.0" text-anchor="middle" font-size="10" fill="#555">AD, DNS, DHCP, WSUS</text><rect x="200.0" y="370" width="300" height="80" rx="5" ry="5" fill="#e8f5e9" stroke="#4caf50" stroke-width="1.5"/><text x="350.0" y="405.0" text-anchor="middle" font-size="14" font-weight="bold" fill="#333333">VM 2: Linux LTS</text><text x="350.0" y="425.0" text-anchor="middle" font-size="10" fill="#555">GitLab, Ansible, Keycloak, PXE</text><rect x="650.0" y="210" width="300" height="180" rx="10" ry="10" fill="#ffffff" stroke="#ffb300" stroke-width="2" filter="url(#shadow)"/><text x="800.0" y="235" text-anchor="middle" font-size="16" font-weight="bold" fill="#333333">🗄️ TrueNAS Server</text><text x="800.0" y="255" text-anchor="middle" font-size="12" fill="#555">ZFS Storage Pool</text><text x="670.0" y="290" font-size="12" fill="#555">• Code Repos (GitLab Data)</text><text x="670.0" y="310" font-size="12" fill="#555">• Artifacts (Maven/Docker)</text><text x="670.0" y="330" font-size="12" fill="#555">• WSUS Content (iSCSI)</text><text x="670.0" y="350" font-size="12" fill="#555">• VS Layouts (SMB)</text><text x="670.0" y="370" font-size="12" fill="#555">• Backups (Snapshots)</text><rect x="650.0" y="430" width="300" height="80" rx="10" ry="10" fill="#333333" stroke="#000000" stroke-width="2" filter="url(#shadow)"/><text x="800.0" y="455" text-anchor="middle" font-size="16" font-weight="bold" fill="#333333">🔋 Smart UPS</text><text x="800.0" y="475" text-anchor="middle" font-size="12" fill="#555">Power Protection & NUT Master</text><text x="800.0" y="475" text-anchor="middle" font-size="12" fill="#fff">Provides 15-20min Runtime</text><rect x="300.0" y="570" width="600" height="40" rx="5" ry="5" fill="#f3e5f5" stroke="#9c27b0" stroke-width="2" filter="url(#shadow)"/><text x="600.0" y="595" text-anchor="middle" font-size="16" font-weight="bold" fill="#333333">Core Switch (VLANs: Mgmt, Storage, Dev)</text><rect x="100.0" y="630" width="1000" height="200" rx="15" fill="#fff3e0" stroke="#ff9800" stroke-width="1" stroke-dasharray="5,5"/><text x="120.0" y="660" font-size="18" font-weight="bold" fill="#ff9800">开发终端层 (Endpoints & Testing)</text><rect x="290.0" y="690" width="180" height="100" rx="5" ry="5" fill="#ffffff" stroke="#ff9800" stroke-width="1.5"/><text x="380.0" y="735.0" text-anchor="middle" font-size="14" font-weight="bold" fill="#333333">💻 Dev Machine 1</text><text x="380.0" y="755.0" text-anchor="middle" font-size="10" fill="#555">Win11 + WSL2
(VHDX Boot)</text><text x="490.0" y="740" text-anchor="middle" font-size="20" fill="#aaa">...</text><text x="490.0" y="760" text-anchor="middle" font-size="14" fill="#aaa">x50 Nodes</text><rect x="510.0" y="690" width="180" height="100" rx="5" ry="5" fill="#ffffff" stroke="#ff9800" stroke-width="1.5"/><text x="600.0" y="735.0" text-anchor="middle" font-size="14" font-weight="bold" fill="#333333">💻 Dev Machine 50</text><text x="600.0" y="755.0" text-anchor="middle" font-size="10" fill="#555">Win11 + WSL2
(VHDX Boot)</text><rect x="730.0" y="690" width="180" height="100" rx="5" ry="5" fill="#ffccbc" stroke="#d84315" stroke-width="1.5"/><text x="820.0" y="735.0" text-anchor="middle" font-size="14" font-weight="bold" fill="#333333">🧪 Physical Test Bed</text><text x="820.0" y="755.0" text-anchor="middle" font-size="10" fill="#555">Bare Metal / GPU Test
(PXE Controlled)</text><line x1="600.0" y1="110" x2="800.0" y2="210" stroke="#666" stroke-width="2" marker-end="url(#arrow)" /><rect x="635.0" y="150.0" width="130" height="20" fill="white" stroke="none" opacity="0.8"/><text x="700.0" y="165.0" text-anchor="middle" font-size="12" fill="#333">USB Import (Updates)</text><line x1="700.0" y1="430" x2="700.0" y2="390" stroke="#000" stroke-width="2" marker-end="url(#arrow)" stroke-dasharray="5,5"/><rect x="653.0" y="400.0" width="94" height="20" fill="white" stroke="none" opacity="0.8"/><text x="700.0" y="415.0" text-anchor="middle" font-size="12" fill="#333">USB Data (NUT)</text><line x1="650.0" y1="300" x2="550.0" y2="300" stroke="#ffb300" stroke-width="2" marker-end="url(#arrow)" /><rect x="568.0" y="290.0" width="64" height="20" fill="white" stroke="none" opacity="0.8"/><text x="600.0" y="305.0" text-anchor="middle" font-size="12" fill="#333">iSCSI/NFS</text><line x1="350.0" y1="510" x2="450.0" y2="570" stroke="#2196f3" stroke-width="2" marker-end="url(#arrow)" /><line x1="800.0" y1="390" x2="750.0" y2="570" stroke="#ffb300" stroke-width="2" marker-end="url(#arrow)" /><line x1="450.0" y1="610" x2="380.0" y2="690" stroke="#ff9800" stroke-width="2" marker-end="url(#arrow)" /><line x1="750.0" y1="610" x2="820.0" y2="690" stroke="#ff9800" stroke-width="2" marker-end="url(#arrow)" /><rect x="50" y="800" width="250" height="80" fill="#fff" stroke="#ccc"/><text x="60" y="820" font-weight="bold" font-size="14">Legend</text><line x1="60" y1="840" x2="90" y2="840" stroke="#ffb300" stroke-width="2"/><text x="100" y="845" font-size="12">Storage Traffic (iSCSI)</text><line x1="60" y1="860" x2="90" y2="860" stroke="#000" stroke-width="2" stroke-dasharray="5,5"/><text x="100" y="865" font-size="12">Power/Control Signal</text></svg>