<svg xmlns="http://www.w3.org/2000/svg" viewBox="0 0 1600 900" style="font-family: 'Segoe UI', 'Microsoft YaHei', sans-serif;">
<rect width="1600" height="900" fill="#ffffff"/>
<defs>
<marker id="arrow_0ea5e9" markerWidth="10" markerHeight="10" refX="9" refY="3" orient="auto" markerUnits="strokeWidth"><path d="M0,0 L0,6 L9,3 z" fill="#0ea5e9" /></marker>
<marker id="arrow_10b981" markerWidth="10" markerHeight="10" refX="9" refY="3" orient="auto" markerUnits="strokeWidth"><path d="M0,0 L0,6 L9,3 z" fill="#10b981" /></marker>
<marker id="arrow_8b5cf6" markerWidth="10" markerHeight="10" refX="9" refY="3" orient="auto" markerUnits="strokeWidth"><path d="M0,0 L0,6 L9,3 z" fill="#8b5cf6" /></marker>
<marker id="arrow_d946ef" markerWidth="10" markerHeight="10" refX="9" refY="3" orient="auto" markerUnits="strokeWidth"><path d="M0,0 L0,6 L9,3 z" fill="#d946ef" /></marker>
<marker id="arrow_f59e0b" markerWidth="10" markerHeight="10" refX="9" refY="3" orient="auto" markerUnits="strokeWidth"><path d="M0,0 L0,6 L9,3 z" fill="#f59e0b" /></marker>
<marker id="arrow_ef4444" markerWidth="10" markerHeight="10" refX="9" refY="3" orient="auto" markerUnits="strokeWidth"><path d="M0,0 L0,6 L9,3 z" fill="#ef4444" /></marker>
<marker id="arrow_334155" markerWidth="10" markerHeight="10" refX="9" refY="3" orient="auto" markerUnits="strokeWidth"><path d="M0,0 L0,6 L9,3 z" fill="#334155" /></marker>
<marker id="arrow_94a3b8" markerWidth="10" markerHeight="10" refX="9" refY="3" orient="auto" markerUnits="strokeWidth"><path d="M0,0 L0,6 L9,3 z" fill="#94a3b8" /></marker>
</defs>
<text x="800.0" y="40" font-size="24" fill="#0f172a" font-weight="bold" text-anchor="middle" dominant-baseline="middle">基础设施与分层测试网络架构 (Separate Compute Nodes)</text>
<text x="800.0" y="70" font-size="16" fill="#64748b" font-weight="normal" text-anchor="middle" dominant-baseline="middle">Storage | Management | Docker Node | VM Node | Dev &amp; Bare Metal</text>
<g transform="translate(200,150) scale(3.3333333333333335)"><path d="M4 4h16v16H4z M4 9h16 M4 14h16 M6 6.5h2 M6 11.5h2 M6 16.5h2" stroke="#0ea5e9" stroke-width="2" fill="none" stroke-linecap="round" stroke-linejoin="round"/></g>
<text x="240" y="250" font-size="14" fill="bold" font-weight="normal" text-anchor="middle" dominant-baseline="middle">Storage Node</text>
<text x="240" y="270" font-size="12" fill="#64748b" font-weight="normal" text-anchor="middle" dominant-baseline="middle">(TrueNAS Core)</text>
<g transform="translate(100,170) scale(2.0)"><path d="M4 5h16v14H4z M7 12a2 2 0 1 0 0 4 2 2 0 0 0 0-4" stroke="#334155" stroke-width="2" fill="none" stroke-linecap="round" stroke-linejoin="round"/></g>
<path d="M150,194 L190,194" stroke="#334155" stroke-width="2" stroke-dasharray="5,5" fill="none" marker-end="url(#arrow_334155)"/>
<text x="125" y="160" font-size="11" fill="#64748b" font-weight="normal" text-anchor="middle" dominant-baseline="middle">Air-Gap Import</text>
<line x1="240" y1="280" x2="240" y2="520" stroke="#0ea5e9" stroke-width="4" />
<text x="250" y="490" font-size="11" fill="#0ea5e9" font-weight="bold" text-anchor="start" dominant-baseline="middle">iSCSI / NFS</text>
<g transform="translate(550,150) scale(3.3333333333333335)"><path d="M4 4h16v16H4z M4 9h16 M4 14h16 M6 6.5h2 M6 11.5h2 M6 16.5h2" stroke="#10b981" stroke-width="2" fill="none" stroke-linecap="round" stroke-linejoin="round"/></g>
<text x="590" y="250" font-size="14" fill="bold" font-weight="normal" text-anchor="middle" dominant-baseline="middle">Ops Server</text>
<text x="590" y="270" font-size="12" fill="#64748b" font-weight="normal" text-anchor="middle" dominant-baseline="middle">(Management)</text>
<g transform="translate(450,160) scale(2.0)"><path d="M2 4h16v12H2z M14 2h6v12h-6z M4 7l3 3l-3 3 M10 13h4" stroke="#10b981" stroke-width="2" fill="none" stroke-linecap="round" stroke-linejoin="round"/></g>
<text x="474" y="220" font-size="11" fill="#10b981" font-weight="bold" text-anchor="middle" dominant-baseline="middle">VM: Infra</text>
<text x="474" y="235" font-size="10" fill="#64748b" font-weight="normal" text-anchor="middle" dominant-baseline="middle">AD / DNS</text>
<g transform="translate(680,160) scale(2.0)"><path d="M2 4h16v12H2z M14 2h6v12h-6z M4 7l3 3l-3 3 M10 13h4" stroke="#10b981" stroke-width="2" fill="none" stroke-linecap="round" stroke-linejoin="round"/></g>
<text x="704" y="220" font-size="11" fill="#10b981" font-weight="bold" text-anchor="middle" dominant-baseline="middle">VM: DevOps</text>
<text x="704" y="235" font-size="10" fill="#64748b" font-weight="normal" text-anchor="middle" dominant-baseline="middle">GitLab / Sonar</text>
<line x1="498" y1="184" x2="550" y2="184" stroke="#94a3b8" stroke-width="2" stroke-dasharray="5,5"/>
<line x1="680" y1="184" x2="630" y2="184" stroke="#94a3b8" stroke-width="2" stroke-dasharray="5,5"/>
<line x1="590" y1="280" x2="590" y2="520" stroke="#10b981" stroke-width="4" />
<text x="600" y="490" font-size="11" fill="#10b981" font-weight="bold" text-anchor="start" dominant-baseline="middle">Mgmt Trunk</text>
<g transform="translate(950,150) scale(3.3333333333333335)"><path d="M4 4h16v16H4z M4 9h16 M4 14h16 M6 6.5h2 M6 11.5h2 M6 16.5h2" stroke="#8b5cf6" stroke-width="2" fill="none" stroke-linecap="round" stroke-linejoin="round"/></g>
<text x="990" y="250" font-size="14" fill="bold" font-weight="normal" text-anchor="middle" dominant-baseline="middle">Docker Compute Node</text>
<text x="990" y="270" font-size="12" fill="#64748b" font-weight="normal" text-anchor="middle" dominant-baseline="middle">(Physical Host)</text>
<line x1="990" y1="280" x2="990" y2="520" stroke="#8b5cf6" stroke-width="4" />
<g transform="translate(1300,150) scale(3.3333333333333335)"><path d="M4 4h16v16H4z M4 9h16 M4 14h16 M6 6.5h2 M6 11.5h2 M6 16.5h2" stroke="#d946ef" stroke-width="2" fill="none" stroke-linecap="round" stroke-linejoin="round"/></g>
<text x="1340" y="250" font-size="14" fill="bold" font-weight="normal" text-anchor="middle" dominant-baseline="middle">VM Compute Node</text>
<text x="1340" y="270" font-size="12" fill="#64748b" font-weight="normal" text-anchor="middle" dominant-baseline="middle">(Physical Host)</text>
<line x1="1340" y1="280" x2="1340" y2="520" stroke="#d946ef" stroke-width="4" />
<text x="1165.0" y="210" font-size="11" fill="#94a3b8" font-weight="normal" text-anchor="middle" dominant-baseline="middle">Resource Isolation</text>
<line x1="1050" y1="210" x2="1280" y2="210" stroke="#94a3b8" stroke-width="1" stroke-dasharray="5,5"/>
<rect x="100" y="520" width="1400" height="40" fill="#0f172a" rx="4"/>
<text x="800.0" y="545" font-size="14" fill="#ffffff" font-weight="bold" text-anchor="middle" dominant-baseline="middle">10GbE Switching Core (VLANs: Mgmt, Dev, Test)</text>
<text x="200" y="660" font-size="14" fill="#f59e0b" font-weight="bold" text-anchor="middle" dominant-baseline="middle">Tier 1: Dev Endpoints</text>
<g transform="translate(140,700) scale(2.0)"><path d="M2 4h20v12H2z M6 16v4h12v-4 M8 20h8" stroke="#f59e0b" stroke-width="2" fill="none" stroke-linecap="round" stroke-linejoin="round"/></g>
<g transform="translate(200,700) scale(2.0)"><path d="M2 4h20v12H2z M6 16v4h12v-4 M8 20h8" stroke="#f59e0b" stroke-width="2" fill="none" stroke-linecap="round" stroke-linejoin="round"/></g>
<g transform="translate(260,700) scale(2.0)"><path d="M2 4h20v12H2z M6 16v4h12v-4 M8 20h8" stroke="#f59e0b" stroke-width="2" fill="none" stroke-linecap="round" stroke-linejoin="round"/></g>
<text x="200" y="770" font-size="11" fill="#0f172a" font-weight="normal" text-anchor="middle" dominant-baseline="middle">Dev PC (Win/WSL)</text>
<g transform="translate(100,700) scale(1.3333333333333333)"><path d="M12 2C6.48 2 2 6.48 2 12s4.48 10 10 10 10-4.48 10-10S17.52 2 12 2zm0 18c-4.41 0-8-3.59-8-8s3.59-8 8-8 8 3.59 8 8-3.59 8-8 8zm0-10c-1.1 0-2 .9-2 2s.9 2 2 2 2-.9 2-2-.9-2-2-2z" stroke="#94a3b8" stroke-width="2" fill="none" stroke-linecap="round" stroke-linejoin="round"/></g>
<text x="116" y="740" font-size="10" fill="#94a3b8" font-weight="normal" text-anchor="middle" dominant-baseline="middle">Base Img</text>
<line x1="200" y1="700" x2="200" y2="560" stroke="#94a3b8" stroke-width="2" />
<text x="950" y="660" font-size="14" fill="#8b5cf6" font-weight="bold" text-anchor="middle" dominant-baseline="middle">Tier 2: Docker Cluster</text>
<g transform="translate(910,700) scale(1.3333333333333333)"><path d="M12 2l8 4v12l-8 4l-8-4V6z M12 2v10l8 4 M12 12l-8 4 M12 12l8-4 M4 6l8 4" stroke="#8b5cf6" stroke-width="2" fill="none" stroke-linecap="round" stroke-linejoin="round"/></g>
<g transform="translate(950,700) scale(1.3333333333333333)"><path d="M12 2l8 4v12l-8 4l-8-4V6z M12 2v10l8 4 M12 12l-8 4 M12 12l8-4 M4 6l8 4" stroke="#8b5cf6" stroke-width="2" fill="none" stroke-linecap="round" stroke-linejoin="round"/></g>
<g transform="translate(990,700) scale(1.3333333333333333)"><path d="M12 2l8 4v12l-8 4l-8-4V6z M12 2v10l8 4 M12 12l-8 4 M12 12l8-4 M4 6l8 4" stroke="#8b5cf6" stroke-width="2" fill="none" stroke-linecap="round" stroke-linejoin="round"/></g>
<g transform="translate(910,740) scale(1.3333333333333333)"><path d="M12 2l8 4v12l-8 4l-8-4V6z M12 2v10l8 4 M12 12l-8 4 M12 12l8-4 M4 6l8 4" stroke="#8b5cf6" stroke-width="2" fill="none" stroke-linecap="round" stroke-linejoin="round"/></g>
<g transform="translate(950,740) scale(1.3333333333333333)"><path d="M12 2l8 4v12l-8 4l-8-4V6z M12 2v10l8 4 M12 12l-8 4 M12 12l8-4 M4 6l8 4" stroke="#8b5cf6" stroke-width="2" fill="none" stroke-linecap="round" stroke-linejoin="round"/></g>
<g transform="translate(990,740) scale(1.3333333333333333)"><path d="M12 2l8 4v12l-8 4l-8-4V6z M12 2v10l8 4 M12 12l-8 4 M12 12l8-4 M4 6l8 4" stroke="#8b5cf6" stroke-width="2" fill="none" stroke-linecap="round" stroke-linejoin="round"/></g>
<text x="950" y="790" font-size="11" fill="#0f172a" font-weight="normal" text-anchor="middle" dominant-baseline="middle">CI Runners / Headless Test</text>
<line x1="950" y1="700" x2="950" y2="560" stroke="#8b5cf6" stroke-width="2" stroke-dasharray="5,5"/>
<path d="M1010,700 L950,280" stroke="#8b5cf6" stroke-width="1" stroke-dasharray="5,5" fill="none" marker-end="url(#arrow_8b5cf6)"/>
<text x="1030" y="425.0" font-size="10" fill="#8b5cf6" font-weight="normal" text-anchor="start" dominant-baseline="middle">Hosted on Docker Node</text>
<text x="1300" y="660" font-size="14" fill="#d946ef" font-weight="bold" text-anchor="middle" dominant-baseline="middle">Tier 3: Compat VMs</text>
<g transform="translate(1270,700) scale(2.0)"><path d="M2 4h16v12H2z M14 2h6v12h-6z M4 7l3 3l-3 3 M10 13h4" stroke="#d946ef" stroke-width="2" fill="none" stroke-linecap="round" stroke-linejoin="round"/></g>
<text x="1294" y="724" font-size="8" fill="#d946ef" font-weight="normal" text-anchor="middle" dominant-baseline="middle">OS_1</text>
<g transform="translate(1300,720) scale(2.0)"><path d="M2 4h16v12H2z M14 2h6v12h-6z M4 7l3 3l-3 3 M10 13h4" stroke="#d946ef" stroke-width="2" fill="none" stroke-linecap="round" stroke-linejoin="round"/></g>
<text x="1324" y="744" font-size="8" fill="#d946ef" font-weight="normal" text-anchor="middle" dominant-baseline="middle">OS_2</text>
<g transform="translate(1330,700) scale(2.0)"><path d="M2 4h16v12H2z M14 2h6v12h-6z M4 7l3 3l-3 3 M10 13h4" stroke="#d946ef" stroke-width="2" fill="none" stroke-linecap="round" stroke-linejoin="round"/></g>
<text x="1354" y="724" font-size="8" fill="#d946ef" font-weight="normal" text-anchor="middle" dominant-baseline="middle">OS_3</text>
<text x="1300" y="790" font-size="11" fill="#0f172a" font-weight="normal" text-anchor="middle" dominant-baseline="middle">Win/Lin Compatibility</text>
<line x1="1300" y1="700" x2="1300" y2="560" stroke="#d946ef" stroke-width="2" stroke-dasharray="5,5"/>
<path d="M1300,700 L1300,280" stroke="#d946ef" stroke-width="1" stroke-dasharray="5,5" fill="none" marker-end="url(#arrow_d946ef)"/>
<text x="1320" y="405.0" font-size="10" fill="#d946ef" font-weight="normal" text-anchor="start" dominant-baseline="middle">Hosted on VM Node</text>
<text x="1500" y="660" font-size="14" fill="#ef4444" font-weight="bold" text-anchor="middle" dominant-baseline="middle">Tier 4: Bare Metal</text>
<g transform="translate(1480,700) scale(2.6666666666666665)"><path d="M4 4h16v16H4z M4 9h16 M4 14h16 M6 6.5h2 M6 11.5h2 M6 16.5h2" stroke="#ef4444" stroke-width="2" fill="none" stroke-linecap="round" stroke-linejoin="round"/></g>
<text x="1510" y="780" font-size="11" fill="#0f172a" font-weight="normal" text-anchor="middle" dominant-baseline="middle">Dedicated GPU Node</text>
<line x1="1510" y1="700" x2="1510" y2="560" stroke="#ef4444" stroke-width="2" />
<text x="1515" y="580" font-size="10" fill="#ef4444" font-weight="normal" text-anchor="start" dominant-baseline="middle">PXE/Ansible</text>
</svg>