<svg xmlns="http://www.w3.org/2000/svg" viewBox="0 0 1400 1000" style="font-family: 'Segoe UI', 'Microsoft YaHei', sans-serif;">
<rect width="1400" height="1000" fill="#ffffff"/>
<defs>
<marker id="arrow_3b82f6" markerWidth="10" markerHeight="10" refX="9" refY="3" orient="auto" markerUnits="strokeWidth"><path d="M0,0 L0,6 L9,3 z" fill="#3b82f6" /></marker>
<marker id="arrow_22c55e" markerWidth="10" markerHeight="10" refX="9" refY="3" orient="auto" markerUnits="strokeWidth"><path d="M0,0 L0,6 L9,3 z" fill="#22c55e" /></marker>
<marker id="arrow_f97316" markerWidth="10" markerHeight="10" refX="9" refY="3" orient="auto" markerUnits="strokeWidth"><path d="M0,0 L0,6 L9,3 z" fill="#f97316" /></marker>
<marker id="arrow_a855f7" markerWidth="10" markerHeight="10" refX="9" refY="3" orient="auto" markerUnits="strokeWidth"><path d="M0,0 L0,6 L9,3 z" fill="#a855f7" /></marker>
<marker id="arrow_334155" markerWidth="10" markerHeight="10" refX="9" refY="3" orient="auto" markerUnits="strokeWidth"><path d="M0,0 L0,6 L9,3 z" fill="#334155" /></marker>
<marker id="arrow_ef4444" markerWidth="10" markerHeight="10" refX="9" refY="3" orient="auto" markerUnits="strokeWidth"><path d="M0,0 L0,6 L9,3 z" fill="#ef4444" /></marker>
</defs>
<text x="700.0" y="40" font-size="24" fill="#0f172a" font-weight="bold" text-anchor="middle" dominant-baseline="middle">基础设施与测试网络架构 (Refined Topology)</text>
<text x="700.0" y="70" font-size="16" fill="#64748b" font-weight="normal" text-anchor="middle" dominant-baseline="middle">Storage Layer | Ops &amp; Test Clusters | Dev Endpoints | Bare Metal</text>
<g transform="translate(100,150) scale(2.0)"><path d="M4 5h16v14H4z M7 12a2 2 0 1 0 0 4 2 2 0 0 0 0-4" stroke="#ef4444" stroke-width="2" fill="none" stroke-linecap="round" stroke-linejoin="round"/></g>
<text x="124" y="210" font-size="12" fill="#0f172a" font-weight="normal" text-anchor="middle" dominant-baseline="middle">Air-Gap HDD</text>
<path d="M160,174 L390,174" stroke="#ef4444" stroke-width="3" fill="none" marker-end="url(#arrow_ef4444)"/>
<text x="270.0" y="165" font-size="10" fill="#ef4444" font-weight="normal" text-anchor="middle" dominant-baseline="middle">Manual Sync</text>
<g transform="translate(400,150) scale(2.6666666666666665)"><path d="M4 4h16v16H4z M4 9h16 M4 14h16 M6 6.5h2 M6 11.5h2 M6 16.5h2" stroke="#3b82f6" stroke-width="2" fill="none" stroke-linecap="round" stroke-linejoin="round"/></g>
<text x="432" y="230" font-size="14" fill="#3b82f6" font-weight="bold" text-anchor="middle" dominant-baseline="middle">TrueNAS Enterprise</text>
<text x="432" y="250" font-size="12" fill="#64748b" font-weight="normal" text-anchor="middle" dominant-baseline="middle">ZFS / iSCSI / NFS</text>
<g transform="translate(500,150) scale(1.3333333333333333)"><path d="M4 6c0-3 16-3 16 0v12c0 3-16 3-16 0z M4 6c0 3 16 3 16 0 M4 12c0 3 16 3 16 0" stroke="#334155" stroke-width="2" fill="none" stroke-linecap="round" stroke-linejoin="round"/></g>
<text x="516" y="190" font-size="10" fill="#0f172a" font-weight="normal" text-anchor="middle" dominant-baseline="middle">GitLab Data</text>
<g transform="translate(580,150) scale(1.3333333333333333)"><path d="M4 6c0-3 16-3 16 0v12c0 3-16 3-16 0z M4 6c0 3 16 3 16 0 M4 12c0 3 16 3 16 0" stroke="#334155" stroke-width="2" fill="none" stroke-linecap="round" stroke-linejoin="round"/></g>
<text x="596" y="190" font-size="10" fill="#0f172a" font-weight="normal" text-anchor="middle" dominant-baseline="middle">Docker Reg</text>
<g transform="translate(500,210) scale(1.3333333333333333)"><path d="M4 6c0-3 16-3 16 0v12c0 3-16 3-16 0z M4 6c0 3 16 3 16 0 M4 12c0 3 16 3 16 0" stroke="#334155" stroke-width="2" fill="none" stroke-linecap="round" stroke-linejoin="round"/></g>
<text x="516" y="250" font-size="10" fill="#0f172a" font-weight="normal" text-anchor="middle" dominant-baseline="middle">VM Disks</text>
<g transform="translate(580,210) scale(1.3333333333333333)"><path d="M4 6c0-3 16-3 16 0v12c0 3-16 3-16 0z M4 6c0 3 16 3 16 0 M4 12c0 3 16 3 16 0" stroke="#334155" stroke-width="2" fill="none" stroke-linecap="round" stroke-linejoin="round"/></g>
<text x="596" y="250" font-size="10" fill="#0f172a" font-weight="normal" text-anchor="middle" dominant-baseline="middle">Backups</text>
<text x="432" y="120" font-size="12" fill="#3b82f6" font-weight="bold" text-anchor="middle" dominant-baseline="middle">Strategy: 3-2-1-1-0</text>
<g transform="translate(800,150) scale(2.6666666666666665)"><path d="M4 4h16v16H4z M4 9h16 M4 14h16 M6 6.5h2 M6 11.5h2 M6 16.5h2" stroke="#22c55e" stroke-width="2" fill="none" stroke-linecap="round" stroke-linejoin="round"/></g>
<text x="832" y="230" font-size="14" fill="#22c55e" font-weight="bold" text-anchor="middle" dominant-baseline="middle">Ops Server (Proxmox/ESXi)</text>
<rect x="900" y="130" width="180" height="160" fill="none" stroke="#22c55e" stroke-width="1" rx="8" stroke-dasharray="4,4"/><text x="910" y="120" font-size="12" fill="#22c55e" font-weight="bold" text-anchor="start" dominant-baseline="middle">Service VMs &amp; Tier 3 Compat</text>
<g transform="translate(920,150) scale(1.6666666666666667)"><path d="M2 4h16v12H2z M14 2h6v12h-6z M4 7l3 3l-3 3 M10 13h4" stroke="#334155" stroke-width="2" fill="none" stroke-linecap="round" stroke-linejoin="round"/></g>
<text x="940" y="200" font-size="10" fill="#0f172a" font-weight="normal" text-anchor="middle" dominant-baseline="middle">AD/DNS</text>
<g transform="translate(990,150) scale(1.6666666666666667)"><path d="M2 4h16v12H2z M14 2h6v12h-6z M4 7l3 3l-3 3 M10 13h4" stroke="#334155" stroke-width="2" fill="none" stroke-linecap="round" stroke-linejoin="round"/></g>
<text x="1010" y="200" font-size="10" fill="#0f172a" font-weight="normal" text-anchor="middle" dominant-baseline="middle">GitLab</text>
<g transform="translate(920,220) scale(1.6666666666666667)"><path d="M2 4h16v12H2z M14 2h6v12h-6z M4 7l3 3l-3 3 M10 13h4" stroke="#334155" stroke-width="2" fill="none" stroke-linecap="round" stroke-linejoin="round"/></g>
<text x="940" y="270" font-size="10" fill="#0f172a" font-weight="normal" text-anchor="middle" dominant-baseline="middle">Win10 Test</text>
<g transform="translate(990,220) scale(1.6666666666666667)"><path d="M2 4h16v12H2z M14 2h6v12h-6z M4 7l3 3l-3 3 M10 13h4" stroke="#334155" stroke-width="2" fill="none" stroke-linecap="round" stroke-linejoin="round"/></g>
<text x="1010" y="270" font-size="10" fill="#0f172a" font-weight="normal" text-anchor="middle" dominant-baseline="middle">Ubuntu Test</text>
<rect x="1100" y="130" width="160" height="160" fill="none" stroke="#22c55e" stroke-width="1" rx="8" stroke-dasharray="4,4"/><text x="1110" y="120" font-size="12" fill="#22c55e" font-weight="bold" text-anchor="start" dominant-baseline="middle">Tier 2: CI Docker Cluster</text>
<g transform="translate(1120,150) scale(1.3333333333333333)"><path d="M12 2l8 4v12l-8 4l-8-4V6z M12 2v10l8 4 M12 12l-8 4 M12 12l8-4 M4 6l8 4" stroke="#22c55e" stroke-width="2" fill="none" stroke-linecap="round" stroke-linejoin="round"/></g>
<g transform="translate(1165,150) scale(1.3333333333333333)"><path d="M12 2l8 4v12l-8 4l-8-4V6z M12 2v10l8 4 M12 12l-8 4 M12 12l8-4 M4 6l8 4" stroke="#334155" stroke-width="2" fill="none" stroke-linecap="round" stroke-linejoin="round"/></g>
<g transform="translate(1210,150) scale(1.3333333333333333)"><path d="M12 2l8 4v12l-8 4l-8-4V6z M12 2v10l8 4 M12 12l-8 4 M12 12l8-4 M4 6l8 4" stroke="#22c55e" stroke-width="2" fill="none" stroke-linecap="round" stroke-linejoin="round"/></g>
<g transform="translate(1120,195) scale(1.3333333333333333)"><path d="M12 2l8 4v12l-8 4l-8-4V6z M12 2v10l8 4 M12 12l-8 4 M12 12l8-4 M4 6l8 4" stroke="#334155" stroke-width="2" fill="none" stroke-linecap="round" stroke-linejoin="round"/></g>
<g transform="translate(1165,195) scale(1.3333333333333333)"><path d="M12 2l8 4v12l-8 4l-8-4V6z M12 2v10l8 4 M12 12l-8 4 M12 12l8-4 M4 6l8 4" stroke="#22c55e" stroke-width="2" fill="none" stroke-linecap="round" stroke-linejoin="round"/></g>
<g transform="translate(1210,195) scale(1.3333333333333333)"><path d="M12 2l8 4v12l-8 4l-8-4V6z M12 2v10l8 4 M12 12l-8 4 M12 12l8-4 M4 6l8 4" stroke="#334155" stroke-width="2" fill="none" stroke-linecap="round" stroke-linejoin="round"/></g>
<g transform="translate(1120,240) scale(1.3333333333333333)"><path d="M12 2l8 4v12l-8 4l-8-4V6z M12 2v10l8 4 M12 12l-8 4 M12 12l8-4 M4 6l8 4" stroke="#22c55e" stroke-width="2" fill="none" stroke-linecap="round" stroke-linejoin="round"/></g>
<g transform="translate(1165,240) scale(1.3333333333333333)"><path d="M12 2l8 4v12l-8 4l-8-4V6z M12 2v10l8 4 M12 12l-8 4 M12 12l8-4 M4 6l8 4" stroke="#334155" stroke-width="2" fill="none" stroke-linecap="round" stroke-linejoin="round"/></g>
<g transform="translate(1210,240) scale(1.3333333333333333)"><path d="M12 2l8 4v12l-8 4l-8-4V6z M12 2v10l8 4 M12 12l-8 4 M12 12l8-4 M4 6l8 4" stroke="#22c55e" stroke-width="2" fill="none" stroke-linecap="round" stroke-linejoin="round"/></g>
<text x="1190" y="280" font-size="10" fill="#0f172a" font-weight="normal" text-anchor="middle" dominant-baseline="middle">Dynamic Runners</text>
<rect x="100" y="500" width="1200" height="40" fill="#0f172a" rx="4"/>
<text x="700.0" y="525" font-size="14" fill="#ffffff" font-weight="bold" text-anchor="middle" dominant-baseline="middle">10GbE Core Switching Fabric (VLAN Trunks)</text>
<line x1="432" y1="260" x2="432" y2="500" stroke="#3b82f6" stroke-width="4" />
<text x="445" y="480" font-size="10" fill="#3b82f6" font-weight="bold" text-anchor="start" dominant-baseline="middle">iSCSI</text>
<line x1="832" y1="260" x2="832" y2="500" stroke="#22c55e" stroke-width="4" />
<text x="845" y="480" font-size="10" fill="#22c55e" font-weight="bold" text-anchor="start" dominant-baseline="middle">Trunk</text>
<text x="350" y="610" font-size="16" fill="#f97316" font-weight="bold" text-anchor="middle" dominant-baseline="middle">Tier 1: Dev Endpoints</text>
<g transform="translate(150,650) scale(2.3333333333333335)"><path d="M2 4h20v12H2z M6 16v4h12v-4 M8 20h8" stroke="#f97316" stroke-width="2" fill="none" stroke-linecap="round" stroke-linejoin="round"/></g>
<text x="178" y="720" font-size="12" fill="bold" font-weight="normal" text-anchor="middle" dominant-baseline="middle">Dev-01</text>
<line x1="178" y1="650" x2="178" y2="540" stroke="#cbd5e1" stroke-width="2" />
<g transform="translate(290,650) scale(2.3333333333333335)"><path d="M2 4h20v12H2z M6 16v4h12v-4 M8 20h8" stroke="#f97316" stroke-width="2" fill="none" stroke-linecap="round" stroke-linejoin="round"/></g>
<text x="318" y="720" font-size="12" fill="bold" font-weight="normal" text-anchor="middle" dominant-baseline="middle">Dev-02</text>
<line x1="318" y1="650" x2="318" y2="540" stroke="#cbd5e1" stroke-width="2" />
<g transform="translate(430,650) scale(2.3333333333333335)"><path d="M2 4h20v12H2z M6 16v4h12v-4 M8 20h8" stroke="#f97316" stroke-width="2" fill="none" stroke-linecap="round" stroke-linejoin="round"/></g>
<text x="458" y="720" font-size="12" fill="bold" font-weight="normal" text-anchor="middle" dominant-baseline="middle">Dev-03</text>
<line x1="458" y1="650" x2="458" y2="540" stroke="#cbd5e1" stroke-width="2" />
<g transform="translate(570,650) scale(2.3333333333333335)"><path d="M2 4h20v12H2z M6 16v4h12v-4 M8 20h8" stroke="#f97316" stroke-width="2" fill="none" stroke-linecap="round" stroke-linejoin="round"/></g>
<text x="598" y="720" font-size="12" fill="bold" font-weight="normal" text-anchor="middle" dominant-baseline="middle">Dev-04</text>
<line x1="598" y1="650" x2="598" y2="540" stroke="#cbd5e1" stroke-width="2" />
<text x="350" y="750" font-size="12" fill="#64748b" font-weight="normal" text-anchor="middle" dominant-baseline="middle">Stateful: Base Image + User Customization</text>
<text x="350" y="770" font-size="12" fill="#64748b" font-weight="normal" text-anchor="middle" dominant-baseline="middle">Tools: VS Code, Docker Desktop, WSL2</text>
<text x="1000" y="610" font-size="16" fill="#a855f7" font-weight="bold" text-anchor="middle" dominant-baseline="middle">Tier 4: Bare Metal Test</text>
<g transform="translate(960,650) scale(2.6666666666666665)"><path d="M4 4h16v16H4z M4 9h16 M4 14h16 M6 6.5h2 M6 11.5h2 M6 16.5h2" stroke="#a855f7" stroke-width="2" fill="none" stroke-linecap="round" stroke-linejoin="round"/></g>
<text x="992" y="730" font-size="12" fill="bold" font-weight="normal" text-anchor="middle" dominant-baseline="middle">GPU Benchmark Node</text>
<text x="1080" y="680" font-size="11" fill="#a855f7" font-weight="bold" text-anchor="start" dominant-baseline="middle">Stateless Cycle:</text>
<text x="1080" y="700" font-size="10" fill="#64748b" font-weight="normal" text-anchor="start" dominant-baseline="middle">1. PXE Boot</text>
<text x="1080" y="715" font-size="10" fill="#64748b" font-weight="normal" text-anchor="start" dominant-baseline="middle">2. Run Tests</text>
<text x="1080" y="730" font-size="10" fill="#64748b" font-weight="normal" text-anchor="start" dominant-baseline="middle">3. Report</text>
<text x="1080" y="745" font-size="10" fill="#64748b" font-weight="normal" text-anchor="start" dominant-baseline="middle">4. Wipe &amp; Reboot</text>
<line x1="992" y1="650" x2="992" y2="540" stroke="#cbd5e1" stroke-width="2" />
</svg>