<svg xmlns="http://www.w3.org/2000/svg" width="1200" height="900" viewBox="0 0 1200 900" style="background-color: #ffffff; font-family: Segoe UI, sans-serif;"><defs>
        <filter id="softShadow" x="-20%" y="-20%" width="140%" height="140%">
            <feGaussianBlur in="SourceAlpha" stdDeviation="2"/>
            <feOffset dx="1" dy="1" result="offsetblur"/>
            <feComponentTransfer>
                <feFuncA type="linear" slope="0.2"/>
            </feComponentTransfer>
            <feMerge>
                <feMergeNode/>
                <feMergeNode in="SourceGraphic"/>
            </feMerge>
        </filter>
        <linearGradient id="gradBlue" x1="0%" y1="0%" x2="0%" y2="100%">
            <stop offset="0%" style="stop-color:#eff6ff;stop-opacity:1" />
            <stop offset="100%" style="stop-color:#dbeafe;stop-opacity:1" />
        </linearGradient>
        <linearGradient id="gradGreen" x1="0%" y1="0%" x2="0%" y2="100%">
            <stop offset="0%" style="stop-color:#f0fdf4;stop-opacity:1" />
            <stop offset="100%" style="stop-color:#dcfce7;stop-opacity:1" />
        </linearGradient>
        <linearGradient id="gradOrange" x1="0%" y1="0%" x2="0%" y2="100%">
            <stop offset="0%" style="stop-color:#fff7ed;stop-opacity:1" />
            <stop offset="100%" style="stop-color:#ffedd5;stop-opacity:1" />
        </linearGradient>
        <linearGradient id="gradGray" x1="0%" y1="0%" x2="0%" y2="100%">
            <stop offset="0%" style="stop-color:#f8fafc;stop-opacity:1" />
            <stop offset="100%" style="stop-color:#e2e8f0;stop-opacity:1" />
        </linearGradient>
        
        <marker id="arrow" markerWidth="10" markerHeight="10" refX="8" refY="3" orient="auto" markerUnits="strokeWidth">
            <path d="M0,0 L0,6 L9,3 z" fill="#64748b" />
        </marker>
        <marker id="dot" markerWidth="8" markerHeight="8" refX="4" refY="4" orient="auto">
            <circle cx="4" cy="4" r="3" fill="#64748b" />
        </marker>
        </defs><rect x="450.0" y="50" width="300" height="100" rx="12" ry="12" fill="url(#gradGray)" stroke="#e2e8f0" stroke-width="1" opacity="1"  /><rect x="460.0" y="40" width="100" height="24" rx="12" ry="12" fill="white" stroke="#cbd5e1" stroke-width="1" opacity="1"  /><text x="510.0" y="52" font-size="11" fill="#475569" font-weight="bold" text-anchor="middle" dominant-baseline="middle">外部网络 / 摆渡区</text><path d="M17.5,19 C19.985,19 22,16.985 22,14.5 C22,12.132 20.177,10.244 17.819,10.022 C17.545,5.775 14.152,2.5 10,2.5 C6.326,2.5 3.242,5.066 2.381,8.513 C0.999,9.257 0,10.749 0,12.5 C0,15.538 2.462,18 5.5,18 L17.5,19" transform="translate(580.0, 70.0) scale(1.6666666666666667)" fill="#0ea5e9" /><text x="600.0" y="120" font-size="10" fill="#0ea5e9" font-weight="normal" text-anchor="middle" dominant-baseline="middle">Internet / Mirror</text><rect x="520.0" y="180" width="160" height="60" rx="6" ry="6" fill="white" stroke="#cbd5e1" stroke-width="1.5" opacity="1" filter="url(#softShadow)" /><circle cx="600.0" cy="210" r="18" fill="white" stroke="#cbd5e1" stroke-width="1"/><path d="M12,2 C6.48,2 2,6.48 2,12 C2,17.52 6.48,22 12,22 C17.52,22 22,17.52 22,12 C22,6.48 17.52,2 12,2 Z M12,4 L12,8 M12,16 L12,20 M4,12 L8,12 M16,12 L20,12" transform="translate(590.0, 200.0) scale(0.8333333333333334)" fill="#1e293b" /><text x="600.0" y="240" font-size="12" fill="#1e293b" font-weight="bold" text-anchor="middle" dominant-baseline="middle">Gateway Router</text><text x="600.0" y="258" font-size="10" fill="#64748b" font-weight="normal" text-anchor="middle" dominant-baseline="middle">Air-Gap Firewall</text><rect x="250.0" y="280" width="700" height="350" rx="12" ry="12" fill="url(#gradOrange)" stroke="#e2e8f0" stroke-width="1" opacity="1"  /><rect x="260.0" y="270" width="252" height="24" rx="12" ry="12" fill="white" stroke="#cbd5e1" stroke-width="1" opacity="1"  /><text x="386.0" y="282" font-size="11" fill="#475569" font-weight="bold" text-anchor="middle" dominant-baseline="middle">核心机房 (VLAN 20/30) - 核心交换与计算存储</text><rect x="480.0" y="310.0" width="240" height="60" rx="4" ry="4" fill="#1e293b" stroke="#0f172a" stroke-width="1" opacity="1" filter="url(#softShadow)" /><rect x="500.0" y="335" width="12" height="10" rx="1" ry="1" fill="#cbd5e1" stroke="#333" stroke-width="1" opacity="1"  /><rect x="502.0" y="332" width="3" height="3" rx="1" ry="1" fill="#22c55e" stroke="#333" stroke-width="1" opacity="1"  /><rect x="518.0" y="335" width="12" height="10" rx="1" ry="1" fill="#cbd5e1" stroke="#333" stroke-width="1" opacity="1"  /><rect x="520.0" y="332" width="3" height="3" rx="1" ry="1" fill="#22c55e" stroke="#333" stroke-width="1" opacity="1"  /><rect x="536.0" y="335" width="12" height="10" rx="1" ry="1" fill="#cbd5e1" stroke="#333" stroke-width="1" opacity="1"  /><rect x="538.0" y="332" width="3" height="3" rx="1" ry="1" fill="#22c55e" stroke="#333" stroke-width="1" opacity="1"  /><rect x="554.0" y="335" width="12" height="10" rx="1" ry="1" fill="#cbd5e1" stroke="#333" stroke-width="1" opacity="1"  /><rect x="556.0" y="332" width="3" height="3" rx="1" ry="1" fill="#22c55e" stroke="#333" stroke-width="1" opacity="1"  /><rect x="572.0" y="335" width="12" height="10" rx="1" ry="1" fill="#cbd5e1" stroke="#333" stroke-width="1" opacity="1"  /><rect x="574.0" y="332" width="3" height="3" rx="1" ry="1" fill="#22c55e" stroke="#333" stroke-width="1" opacity="1"  /><rect x="590.0" y="335" width="12" height="10" rx="1" ry="1" fill="#cbd5e1" stroke="#333" stroke-width="1" opacity="1"  /><rect x="592.0" y="332" width="3" height="3" rx="1" ry="1" fill="#22c55e" stroke="#333" stroke-width="1" opacity="1"  /><rect x="608.0" y="335" width="12" height="10" rx="1" ry="1" fill="#cbd5e1" stroke="#333" stroke-width="1" opacity="1"  /><rect x="610.0" y="332" width="3" height="3" rx="1" ry="1" fill="#22c55e" stroke="#333" stroke-width="1" opacity="1"  /><rect x="626.0" y="335" width="12" height="10" rx="1" ry="1" fill="#cbd5e1" stroke="#333" stroke-width="1" opacity="1"  /><rect x="628.0" y="332" width="3" height="3" rx="1" ry="1" fill="#22c55e" stroke="#333" stroke-width="1" opacity="1"  /><rect x="644.0" y="335" width="12" height="10" rx="1" ry="1" fill="#cbd5e1" stroke="#333" stroke-width="1" opacity="1"  /><rect x="646.0" y="332" width="3" height="3" rx="1" ry="1" fill="#22c55e" stroke="#333" stroke-width="1" opacity="1"  /><rect x="662.0" y="335" width="12" height="10" rx="1" ry="1" fill="#cbd5e1" stroke="#333" stroke-width="1" opacity="1"  /><rect x="664.0" y="332" width="3" height="3" rx="1" ry="1" fill="#22c55e" stroke="#333" stroke-width="1" opacity="1"  /><rect x="680.0" y="335" width="12" height="10" rx="1" ry="1" fill="#cbd5e1" stroke="#333" stroke-width="1" opacity="1"  /><rect x="682.0" y="332" width="3" height="3" rx="1" ry="1" fill="#22c55e" stroke="#333" stroke-width="1" opacity="1"  /><rect x="698.0" y="335" width="12" height="10" rx="1" ry="1" fill="#cbd5e1" stroke="#333" stroke-width="1" opacity="1"  /><rect x="700.0" y="332" width="3" height="3" rx="1" ry="1" fill="#22c55e" stroke="#333" stroke-width="1" opacity="1"  /><text x="600.0" y="360" font-size="12" fill="white" font-weight="bold" text-anchor="middle" dominant-baseline="middle">Core Switch (L3 Managed)</text><rect x="300.0" y="400" width="200" height="120" rx="6" ry="6" fill="#fff7ed" stroke="#fdba74" stroke-width="1.5" opacity="1" filter="url(#softShadow)" /><circle cx="400.0" cy="430" r="18" fill="white" stroke="#fdba74" stroke-width="1"/><path d="M4,2 H20 A2,2 0 0,1 22,4 V20 A2,2 0 0,1 20,22 H4 A2,2 0 0,1 2,20 V4 A2,2 0 0,1 4,2 Z M4,6 H20 M4,12 H20 M4,18 H20" transform="translate(390.0, 420.0) scale(0.8333333333333334)" fill="#c2410c" /><text x="400.0" y="460" font-size="12" fill="#c2410c" font-weight="bold" text-anchor="middle" dominant-baseline="middle">Ops Server</text><text x="400.0" y="478" font-size="10" fill="#64748b" font-weight="normal" text-anchor="middle" dominant-baseline="middle">Proxmox / ESXi</text><text x="350.0" y="490" font-size="10" fill="#9a3412" font-weight="normal" text-anchor="middle" dominant-baseline="middle">VM: WinServer (AD/WSUS)</text><text x="450.0" y="490" font-size="10" fill="#9a3412" font-weight="normal" text-anchor="middle" dominant-baseline="middle">VM: Linux (GitLab/Ansible)</text><rect x="710.0" y="400" width="180" height="120" rx="6" ry="6" fill="#eff6ff" stroke="#93c5fd" stroke-width="1.5" opacity="1" filter="url(#softShadow)" /><circle cx="800.0" cy="430" r="18" fill="white" stroke="#93c5fd" stroke-width="1"/><path d="M12,2 C17.5,2 22,3.5 22,5.5 V18.5 C22,20.5 17.5,22 12,22 C6.5,22 2,20.5 2,18.5 V5.5 C2,3.5 6.5,2 12,2 Z M2,9 C2,10.5 6,12 12,12 C18,12 22,10.5 22,9 M2,15 C2,16.5 6,18 12,18 C18,18 22,16.5 22,15" transform="translate(790.0, 420.0) scale(0.8333333333333334)" fill="#1d4ed8" /><text x="800.0" y="460" font-size="12" fill="#1d4ed8" font-weight="bold" text-anchor="middle" dominant-baseline="middle">TrueNAS Scale</text><text x="800.0" y="478" font-size="10" fill="#64748b" font-weight="normal" text-anchor="middle" dominant-baseline="middle">ZFS Storage Pool</text><text x="800.0" y="490" font-size="10" fill="#1e40af" font-weight="normal" text-anchor="middle" dominant-baseline="middle">iSCSI Target / NFS</text><rect x="540.0" y="540" width="120" height="80" rx="6" ry="6" fill="#fef2f2" stroke="#fca5a5" stroke-width="1.5" opacity="1" filter="url(#softShadow)" /><circle cx="600.0" cy="570" r="18" fill="white" stroke="#fca5a5" stroke-width="1"/><path d="M8,6 V4 H16 V6 H20 V20 H4 V6 H8 M6,10 H18 M6,14 H18" transform="translate(590.0, 560.0) scale(0.8333333333333334)" fill="#b91c1c" /><text x="600.0" y="600" font-size="12" fill="#b91c1c" font-weight="bold" text-anchor="middle" dominant-baseline="middle">Smart UPS</text><text x="600.0" y="618" font-size="10" fill="#64748b" font-weight="normal" text-anchor="middle" dominant-baseline="middle">Power &amp; NUT Master</text><rect x="50" y="700" width="300" height="150" rx="12" ry="12" fill="url(#gradBlue)" stroke="#e2e8f0" stroke-width="1" opacity="1"  /><rect x="60" y="690" width="140" height="24" rx="12" ry="12" fill="white" stroke="#cbd5e1" stroke-width="1" opacity="1"  /><text x="130" y="702" font-size="11" fill="#475569" font-weight="bold" text-anchor="middle" dominant-baseline="middle">办公开发区 (VLAN 10)</text><rect x="120" y="750" width="160" height="80" rx="6" ry="6" fill="white" stroke="#cbd5e1" stroke-width="1.5" opacity="1" filter="url(#softShadow)" /><circle cx="200.0" cy="780" r="18" fill="white" stroke="#cbd5e1" stroke-width="1"/><path d="M2,4 H22 V16 H2 Z M6,16 V19 H18 V16 M8,22 H16" transform="translate(190.0, 770.0) scale(0.8333333333333334)" fill="#1e293b" /><text x="200.0" y="810" font-size="12" fill="#1e293b" font-weight="bold" text-anchor="middle" dominant-baseline="middle">Dev Workstations</text><text x="200.0" y="828" font-size="10" fill="#64748b" font-weight="normal" text-anchor="middle" dominant-baseline="middle">Win11 + VS2022</text><rect x="150" y="760" width="160" height="80" rx="6" ry="6" fill="white" stroke="#cbd5e1" stroke-width="1.5" opacity="1" filter="url(#softShadow)" /><circle cx="230.0" cy="790" r="18" fill="white" stroke="#cbd5e1" stroke-width="1"/><path d="M2,4 H22 V16 H2 Z M6,16 V19 H18 V16 M8,22 H16" transform="translate(220.0, 780.0) scale(0.8333333333333334)" fill="#1e293b" /><text x="230.0" y="820" font-size="12" fill="#1e293b" font-weight="bold" text-anchor="middle" dominant-baseline="middle">Dev Workstations</text><text x="230.0" y="838" font-size="10" fill="#64748b" font-weight="normal" text-anchor="middle" dominant-baseline="middle">Win11 + VS2022</text><rect x="750" y="700" width="400" height="150" rx="12" ry="12" fill="url(#gradGreen)" stroke="#e2e8f0" stroke-width="1" opacity="1"  /><rect x="760" y="690" width="164" height="24" rx="12" ry="12" fill="white" stroke="#cbd5e1" stroke-width="1" opacity="1"  /><text x="842" y="702" font-size="11" fill="#475569" font-weight="bold" text-anchor="middle" dominant-baseline="middle">构建与测试实验室 (VLAN 40)</text><rect x="750" y="750" width="120" height="80" rx="6" ry="6" fill="#f0fdf4" stroke="#86efac" stroke-width="1.5" opacity="1" filter="url(#softShadow)" /><circle cx="810.0" cy="780" r="18" fill="white" stroke="#86efac" stroke-width="1"/><path d="M2,11 L11,11 L11,4 L2,5 Z M12,11 L22,11 L22,2.5 L12,3.5 Z M2,12 L11,12 L11,19 L2,20 Z M12,12 L22,12 L22,21.5 L12,20.5 Z" transform="translate(800.0, 770.0) scale(0.8333333333333334)" fill="#1e293b" /><text x="810.0" y="810" font-size="12" fill="#1e293b" font-weight="bold" text-anchor="middle" dominant-baseline="middle">Hyper-V Cluster</text><text x="810.0" y="828" font-size="10" fill="#64748b" font-weight="normal" text-anchor="middle" dominant-baseline="middle">Win Build Agents</text><rect x="900" y="750" width="120" height="80" rx="6" ry="6" fill="#f0fdf4" stroke="#86efac" stroke-width="1.5" opacity="1" filter="url(#softShadow)" /><circle cx="960.0" cy="780" r="18" fill="white" stroke="#86efac" stroke-width="1"/><path d="M2,11 L4,11 L4,13 L2,13 Z M5,11 L7,11 L7,13 L5,13 Z M8,11 L10,11 L10,13 L8,13 Z M2,8 L4,8 L4,10 L2,10 Z M5,8 L7,8 L7,10 L5,10 Z M8,8 L10,8 L10,10 L8,10 Z M11,8 L13,8 L13,10 L11,10 Z M5,5 L7,5 L7,7 L5,7 Z M8,5 L10,5 L10,7 L8,7 Z M11,5 L13,5 L13,7 L11,7 Z M22,12 Q22,10 20,9 L14,9 V14 H1 C1,17 3,19 6,19 H16 Q20,19 22,15 V12 Z" transform="translate(950.0, 770.0) scale(0.8333333333333334)" fill="#1e293b" /><text x="960.0" y="810" font-size="12" fill="#1e293b" font-weight="bold" text-anchor="middle" dominant-baseline="middle">Docker Swarm</text><text x="960.0" y="828" font-size="10" fill="#64748b" font-weight="normal" text-anchor="middle" dominant-baseline="middle">Linux CI Runners</text><rect x="1050" y="750" width="120" height="80" rx="6" ry="6" fill="#f0fdf4" stroke="#86efac" stroke-width="1.5" opacity="1" filter="url(#softShadow)" /><circle cx="1110.0" cy="780" r="18" fill="white" stroke="#86efac" stroke-width="1"/><path d="M4,2 H20 A2,2 0 0,1 22,4 V20 A2,2 0 0,1 20,22 H4 A2,2 0 0,1 2,20 V4 A2,2 0 0,1 4,2 Z M4,6 H20 M4,12 H20 M4,18 H20" transform="translate(1100.0, 770.0) scale(0.8333333333333334)" fill="#1e293b" /><text x="1110.0" y="810" font-size="12" fill="#1e293b" font-weight="bold" text-anchor="middle" dominant-baseline="middle">Physical Labs</text><text x="1110.0" y="828" font-size="10" fill="#64748b" font-weight="normal" text-anchor="middle" dominant-baseline="middle">GPU / Hardware</text><path d="M600.0,110 L600.0,180" stroke="#0ea5e9" stroke-width="2" fill="none"   /><path d="M600.0,240 L600.0,310" stroke="#94a3b8" stroke-width="2" fill="none" stroke-dasharray="5,5" marker-end="url(#arrow)" /><rect x="560.0" y="260" width="80" height="20" rx="10" ry="10" fill="white" stroke="#cbd5e1" stroke-width="1" opacity="1"  /><text x="600.0" y="270" font-size="9" fill="#64748b" font-weight="normal" text-anchor="middle" dominant-baseline="middle">Manual/Ferry</text><path d="M540.0,370 L540.0,385.0 L400.0,385.0 L400.0,400" stroke="#f97316" stroke-width="3" fill="none"   /><path d="M660.0,370 L660.0,385.0 L800.0,385.0 L800.0,400" stroke="#f97316" stroke-width="3" fill="none"   /><path d="M500.0,460 L710.0,460" stroke="#3b82f6" stroke-width="4" fill="none" stroke-dasharray="2,2"  /><rect x="550.0" y="450" width="100" height="20" rx="4" ry="4" fill="white" stroke="#bfdbfe" stroke-width="1" opacity="1"  /><text x="600.0" y="460" font-size="10" fill="#2563eb" font-weight="normal" text-anchor="middle" dominant-baseline="middle">iSCSI Direct</text><path d="M600.0,540 L600.0,500" stroke="#ef4444" stroke-width="2" fill="none" stroke-dasharray="4,2"  /><path d="M600.0,540 L800.0,520" stroke="#ef4444" stroke-width="2" fill="none" stroke-dasharray="4,2" marker-end="url(#dot)" /><text x="700.0" y="570" font-size="9" fill="#ef4444" font-weight="normal" text-anchor="middle" dominant-baseline="middle">USB Signal</text><path d="M500.0,370 L500.0,560.0 L200,560.0 L200,750" stroke="#3b82f6" stroke-width="3" fill="none"   /><path d="M700.0,370 L700.0,560.0 L900,560.0 L900,750" stroke="#22c55e" stroke-width="3" fill="none"   /><path d="M900,720 L750,750" stroke="#22c55e" stroke-width="2" fill="none"   /><path d="M900,720 L1050,750" stroke="#22c55e" stroke-width="2" fill="none"   /></svg>