<svg xmlns="http://www.w3.org/2000/svg" width="1210" height="610" viewBox="0 0 1210 610" style="background-color: white; font-family: Microsoft YaHei, SimHei, sans-serif; font-size: 14px;">
<defs>
    <style>
        .bold { font-weight: bold; }
    </style>
</defs>
<rect x="0" y="0" width="1210" height="610" fill="white"/><rect x="0" y="0" width="1210" height="50" fill="#f3f4f6"/><line x1="0" y1="50" x2="1210" y2="50" stroke="#e5e7eb" stroke-width="1"/><text x="10" y="30" fill="#111827"><tspan class="bold">环境方案</tspan></text><line x1="150" y1="0" x2="150" y2="50" stroke="#e5e7eb" stroke-width="1"/><text x="160" y="30" fill="#111827"><tspan class="bold">可拓展性</tspan></text><line x1="310" y1="0" x2="310" y2="50" stroke="#e5e7eb" stroke-width="1"/><text x="320" y="30" fill="#111827"><tspan class="bold">对开发机影响</tspan></text><line x1="510" y1="0" x2="510" y2="50" stroke="#e5e7eb" stroke-width="1"/><text x="520" y="30" fill="#111827"><tspan class="bold">恢复难度</tspan></text><line x1="670" y1="0" x2="670" y2="50" stroke="#e5e7eb" stroke-width="1"/><text x="680" y="30" fill="#111827"><tspan class="bold">调试便利度</tspan></text><line x1="830" y1="0" x2="830" y2="50" stroke="#e5e7eb" stroke-width="1"/><text x="840" y="30" fill="#111827"><tspan class="bold">GUI/显卡支持</tspan></text><line x1="990" y1="0" x2="990" y2="50" stroke="#e5e7eb" stroke-width="1"/><text x="1000" y="30" fill="#111827"><tspan class="bold">典型适用场景</tspan></text><rect x="0" y="50" width="1210" height="80" fill="white"/><line x1="0" y1="130" x2="1210" y2="130" stroke="#e5e7eb" stroke-width="1"/><text x="10" y="75" fill="#111827"><tspan>1. 开发机原生</tspan></text><line x1="150" y1="50" x2="150" y2="130" stroke="#e5e7eb" stroke-width="1"/><text x="160" y="75" fill="#111827"><tspan class="bold">极低</tspan><tspan>。依赖本地O</tspan></text><text x="160" y="95" fill="#111827"><tspan>S，难以复制多套环境</tspan></text><text x="160" y="115" fill="#111827"><tspan>。</tspan></text><line x1="310" y1="50" x2="310" y2="130" stroke="#e5e7eb" stroke-width="1"/><text x="320" y="75" fill="#111827"><tspan class="bold">高</tspan><tspan>。安装依赖易导致</tspan></text><text x="320" y="95" fill="#111827"><tspan>环境污染（DLL Hell），</tspan></text><text x="320" y="115" fill="#111827"><tspan>卸载残留多。</tspan></text><line x1="510" y1="50" x2="510" y2="130" stroke="#e5e7eb" stroke-width="1"/><text x="520" y="75" fill="#111827"><tspan class="bold">极高</tspan><tspan>。环境损坏</tspan></text><text x="520" y="95" fill="#111827"><tspan>可能需重装系统，阻断</tspan></text><text x="520" y="115" fill="#111827"><tspan>开发。</tspan></text><line x1="670" y1="50" x2="670" y2="130" stroke="#e5e7eb" stroke-width="1"/><text x="680" y="75" fill="#111827"><tspan class="bold">极佳</tspan><tspan>。本地IDE</tspan></text><text x="680" y="95" fill="#111827"><tspan>直接调试。</tspan></text><line x1="830" y1="50" x2="830" y2="130" stroke="#e5e7eb" stroke-width="1"/><text x="840" y="75" fill="#111827"><tspan class="bold">完美</tspan><tspan>。原生硬件</tspan></text><text x="840" y="95" fill="#111827"><tspan>支持。</tspan></text><line x1="990" y1="50" x2="990" y2="130" stroke="#e5e7eb" stroke-width="1"/><text x="1000" y="75" fill="#111827"><tspan>快速原型验证、简单逻辑调试、</tspan></text><text x="1000" y="95" fill="#111827"><tspan>IDE功能使用。</tspan></text><rect x="0" y="130" width="1210" height="80" fill="white"/><line x1="0" y1="210" x2="1210" y2="210" stroke="#e5e7eb" stroke-width="1"/><text x="10" y="155" fill="#111827"><tspan>2. 开发机 WSL2</tspan></text><line x1="150" y1="130" x2="150" y2="210" stroke="#e5e7eb" stroke-width="1"/><text x="160" y="155" fill="#111827"><tspan class="bold">中</tspan><tspan>。支持多发行</tspan></text><text x="160" y="175" fill="#111827"><tspan>版，但共享内核。</tspan></text><line x1="310" y1="130" x2="310" y2="210" stroke="#e5e7eb" stroke-width="1"/><text x="320" y="155" fill="#111827"><tspan class="bold">中</tspan><tspan>。文件系统隔离，</tspan></text><text x="320" y="175" fill="#111827"><tspan>但端口与宿主机共享，可能</tspan></text><text x="320" y="195" fill="#111827"><tspan>冲突。</tspan></text><line x1="510" y1="130" x2="510" y2="210" stroke="#e5e7eb" stroke-width="1"/><text x="520" y="155" fill="#111827"><tspan class="bold">低</tspan><tspan>。可快速重置</tspan></text><text x="520" y="175" fill="#111827"><tspan>发行版或导入导出镜像</tspan></text><text x="520" y="195" fill="#111827"><tspan>。</tspan></text><line x1="670" y1="130" x2="670" y2="210" stroke="#e5e7eb" stroke-width="1"/><text x="680" y="155" fill="#111827"><tspan class="bold">优</tspan><tspan>。VSCode Re</tspan></text><text x="680" y="175" fill="#111827"><tspan>mote支持极佳。</tspan></text><line x1="830" y1="130" x2="830" y2="210" stroke="#e5e7eb" stroke-width="1"/><text x="840" y="155" fill="#111827"><tspan class="bold">支持</tspan><tspan>。WSLg支持</tspan></text><text x="840" y="175" fill="#111827"><tspan>GUI，支持GPU直通（</tspan></text><text x="840" y="195" fill="#111827"><tspan>CUDA）。</tspan></text><line x1="990" y1="130" x2="990" y2="210" stroke="#e5e7eb" stroke-width="1"/><text x="1000" y="155" fill="#111827"><tspan>Windows下的Linux开发、轻</tspan></text><text x="1000" y="175" fill="#111827"><tspan>量级后端服务调试。</tspan></text><rect x="0" y="210" width="1210" height="80" fill="white"/><line x1="0" y1="290" x2="1210" y2="290" stroke="#e5e7eb" stroke-width="1"/><text x="10" y="235" fill="#111827"><tspan>3. 开发机虚拟机</tspan></text><text x="10" y="255" fill="#111827"><tspan>(VMware/VBox)</tspan></text><line x1="150" y1="210" x2="150" y2="290" stroke="#e5e7eb" stroke-width="1"/><text x="160" y="235" fill="#111827"><tspan class="bold">低</tspan><tspan>。受限于本地</tspan></text><text x="160" y="255" fill="#111827"><tspan>磁盘和内存资源。</tspan></text><line x1="310" y1="210" x2="310" y2="290" stroke="#e5e7eb" stroke-width="1"/><text x="320" y="235" fill="#111827"><tspan class="bold">高</tspan><tspan>。资源占用显著，</tspan></text><text x="320" y="255" fill="#111827"><tspan>可能拖慢宿主机运行。</tspan></text><line x1="510" y1="210" x2="510" y2="290" stroke="#e5e7eb" stroke-width="1"/><text x="520" y="235" fill="#111827"><tspan class="bold">中</tspan><tspan>。依赖快照，</tspan></text><text x="520" y="255" fill="#111827"><tspan>但占用大量磁盘空间。</tspan></text><line x1="670" y1="210" x2="670" y2="290" stroke="#e5e7eb" stroke-width="1"/><text x="680" y="235" fill="#111827"><tspan class="bold">一般</tspan><tspan>。需远程调</tspan></text><text x="680" y="255" fill="#111827"><tspan>试，网络配置（NAT/B</tspan></text><text x="680" y="275" fill="#111827"><tspan>ridge）常出问题。</tspan></text><line x1="830" y1="210" x2="830" y2="290" stroke="#e5e7eb" stroke-width="1"/><text x="840" y="235" fill="#111827"><tspan class="bold">一般</tspan><tspan>。3D加速性</tspan></text><text x="840" y="255" fill="#111827"><tspan>能折损大，GUI体验一</tspan></text><text x="840" y="275" fill="#111827"><tspan>般。</tspan></text><line x1="990" y1="210" x2="990" y2="290" stroke="#e5e7eb" stroke-width="1"/><text x="1000" y="235" fill="#111827"><tspan>内核/驱动开发、非Linux系统</tspan></text><text x="1000" y="255" fill="#111827"><tspan>兼容性测试、完全隔离需求。</tspan></text><rect x="0" y="290" width="1210" height="80" fill="white"/><line x1="0" y1="370" x2="1210" y2="370" stroke="#e5e7eb" stroke-width="1"/><text x="10" y="315" fill="#111827"><tspan>4. 开发机 Docker</tspan></text><line x1="150" y1="290" x2="150" y2="370" stroke="#e5e7eb" stroke-width="1"/><text x="160" y="315" fill="#111827"><tspan class="bold">高</tspan><tspan>。基于Compos</tspan></text><text x="160" y="335" fill="#111827"><tspan>e可快速拉起微服务集</tspan></text><text x="160" y="355" fill="#111827"><tspan>群。</tspan></text><line x1="310" y1="290" x2="310" y2="370" stroke="#e5e7eb" stroke-width="1"/><text x="320" y="315" fill="#111827"><tspan class="bold">低</tspan><tspan>。仅占用运行资源</tspan></text><text x="320" y="335" fill="#111827"><tspan>，文件系统完全隔离。</tspan></text><line x1="510" y1="290" x2="510" y2="370" stroke="#e5e7eb" stroke-width="1"/><text x="520" y="315" fill="#111827"><tspan class="bold">极低</tspan><tspan>。秒级销毁</tspan></text><text x="520" y="335" fill="#111827"><tspan>重建 (docker syst</tspan></text><text x="520" y="355" fill="#111827"><tspan>em prune)。</tspan></text><line x1="670" y1="290" x2="670" y2="370" stroke="#e5e7eb" stroke-width="1"/><text x="680" y="315" fill="#111827"><tspan class="bold">良</tspan><tspan>。需配置远程</tspan></text><text x="680" y="335" fill="#111827"><tspan>端口或Attach，配置</tspan></text><text x="680" y="355" fill="#111827"><tspan>稍繁琐。</tspan></text><line x1="830" y1="290" x2="830" y2="370" stroke="#e5e7eb" stroke-width="1"/><text x="840" y="315" fill="#111827"><tspan class="bold">有限</tspan><tspan>。配置X11</tspan></text><text x="840" y="335" fill="#111827"><tspan>转发复杂，GPU需NVI</tspan></text><text x="840" y="355" fill="#111827"><tspan>DIA Runtime支持。</tspan></text><line x1="990" y1="290" x2="990" y2="370" stroke="#e5e7eb" stroke-width="1"/><text x="1000" y="315" fill="#111827"><tspan>验证CI脚本、依赖环境一致性</tspan></text><text x="1000" y="335" fill="#111827"><tspan>检查、数据库/中间件运行。</tspan></text><rect x="0" y="370" width="1210" height="80" fill="white"/><line x1="0" y1="450" x2="1210" y2="450" stroke="#e5e7eb" stroke-width="1"/><text x="10" y="395" fill="#111827"><tspan>5. 测试机 Docker</tspan></text><line x1="150" y1="370" x2="150" y2="450" stroke="#e5e7eb" stroke-width="1"/><text x="160" y="395" fill="#111827"><tspan class="bold">极高</tspan><tspan>。依托集群</tspan></text><text x="160" y="415" fill="#111827"><tspan>资源，可动态调度。</tspan></text><line x1="310" y1="370" x2="310" y2="450" stroke="#e5e7eb" stroke-width="1"/><text x="320" y="395" fill="#111827"><tspan class="bold">无</tspan><tspan>。不消耗本地资源</tspan></text><text x="320" y="415" fill="#111827"><tspan>。</tspan></text><line x1="510" y1="370" x2="510" y2="450" stroke="#e5e7eb" stroke-width="1"/><text x="520" y="395" fill="#111827"><tspan class="bold">极低</tspan><tspan>。无状态设</tspan></text><text x="520" y="415" fill="#111827"><tspan>计，用完即焚。</tspan></text><line x1="670" y1="370" x2="670" y2="450" stroke="#e5e7eb" stroke-width="1"/><text x="680" y="395" fill="#111827"><tspan class="bold">差</tspan><tspan>。主要依赖日</tspan></text><text x="680" y="415" fill="#111827"><tspan>志排查，远程调试高延</tspan></text><text x="680" y="435" fill="#111827"><tspan>迟。</tspan></text><line x1="830" y1="370" x2="830" y2="450" stroke="#e5e7eb" stroke-width="1"/><text x="840" y="395" fill="#111827"><tspan class="bold">差</tspan><tspan>。通常为无头</tspan></text><text x="840" y="415" fill="#111827"><tspan>模式 (Headless)。</tspan></text><line x1="990" y1="370" x2="990" y2="450" stroke="#e5e7eb" stroke-width="1"/><text x="1000" y="395" fill="#111827"><tspan>CI流水线自动构建、单元测试</tspan></text><text x="1000" y="415" fill="#111827"><tspan>、自动化回归测试。</tspan></text><rect x="0" y="450" width="1210" height="80" fill="white"/><line x1="0" y1="530" x2="1210" y2="530" stroke="#e5e7eb" stroke-width="1"/><text x="10" y="475" fill="#111827"><tspan>6. PVE/Hyper-V</tspan></text><text x="10" y="495" fill="#111827"><tspan>虚拟化平台</tspan></text><line x1="150" y1="450" x2="150" y2="530" stroke="#e5e7eb" stroke-width="1"/><text x="160" y="475" fill="#111827"><tspan class="bold">高</tspan><tspan>。支持模板克</tspan></text><text x="160" y="495" fill="#111827"><tspan>隆、资源热调整。</tspan></text><line x1="310" y1="450" x2="310" y2="530" stroke="#e5e7eb" stroke-width="1"/><text x="320" y="475" fill="#111827"><tspan class="bold">无</tspan><tspan>。不消耗本地资源</tspan></text><text x="320" y="495" fill="#111827"><tspan>。</tspan></text><line x1="510" y1="450" x2="510" y2="530" stroke="#e5e7eb" stroke-width="1"/><text x="520" y="475" fill="#111827"><tspan class="bold">低</tspan><tspan>。服务端快照</tspan></text><text x="520" y="495" fill="#111827"><tspan>恢复迅速，支持自动备</tspan></text><text x="520" y="515" fill="#111827"><tspan>份。</tspan></text><line x1="670" y1="450" x2="670" y2="530" stroke="#e5e7eb" stroke-width="1"/><text x="680" y="475" fill="#111827"><tspan class="bold">一般</tspan><tspan>。需远程调</tspan></text><text x="680" y="495" fill="#111827"><tspan>试。</tspan></text><line x1="830" y1="450" x2="830" y2="530" stroke="#e5e7eb" stroke-width="1"/><text x="840" y="475" fill="#111827"><tspan class="bold">中</tspan><tspan>。支持Web/VN</tspan></text><text x="840" y="495" fill="#111827"><tspan>C控制台，vGPU需企业</tspan></text><text x="840" y="515" fill="#111827"><tspan>授权。</tspan></text><line x1="990" y1="450" x2="990" y2="530" stroke="#e5e7eb" stroke-width="1"/><text x="1000" y="475" fill="#111827"><tspan>长期运行的UAT环境、复杂网络</tspan></text><text x="1000" y="495" fill="#111827"><tspan>拓扑模拟、多OS兼容性测试。</tspan></text><rect x="0" y="530" width="1210" height="80" fill="white"/><line x1="0" y1="610" x2="1210" y2="610" stroke="#e5e7eb" stroke-width="1"/><text x="10" y="555" fill="#111827"><tspan>7. 物理测试机</tspan></text><line x1="150" y1="530" x2="150" y2="610" stroke="#e5e7eb" stroke-width="1"/><text x="160" y="555" fill="#111827"><tspan class="bold">极低</tspan><tspan>。硬件固定</tspan></text><text x="160" y="575" fill="#111827"><tspan>，采购部署周期长。</tspan></text><line x1="310" y1="530" x2="310" y2="610" stroke="#e5e7eb" stroke-width="1"/><text x="320" y="555" fill="#111827"><tspan class="bold">无</tspan><tspan>。不消耗本地资源</tspan></text><text x="320" y="575" fill="#111827"><tspan>。</tspan></text><line x1="510" y1="530" x2="510" y2="610" stroke="#e5e7eb" stroke-width="1"/><text x="520" y="555" fill="#111827"><tspan class="bold">高</tspan><tspan>。需PXE重装</tspan></text><text x="520" y="575" fill="#111827"><tspan>或人工干预，恢复慢。</tspan></text><line x1="670" y1="530" x2="670" y2="610" stroke="#e5e7eb" stroke-width="1"/><text x="680" y="555" fill="#111827"><tspan class="bold">困难</tspan><tspan>。需物理接</tspan></text><text x="680" y="575" fill="#111827"><tspan>触或KVM-over-IP。</tspan></text><line x1="830" y1="530" x2="830" y2="610" stroke="#e5e7eb" stroke-width="1"/><text x="840" y="555" fill="#111827"><tspan class="bold">完美</tspan><tspan>。真实的硬</tspan></text><text x="840" y="575" fill="#111827"><tspan>件环境。</tspan></text><line x1="990" y1="530" x2="990" y2="610" stroke="#e5e7eb" stroke-width="1"/><text x="1000" y="555" fill="#111827"><tspan>硬件接口测试（USB/串口）、</tspan></text><text x="1000" y="575" fill="#111827"><tspan>性能基准测试(Benchmark)、</tspan></text><text x="1000" y="595" fill="#111827"><tspan>高算力场景。</tspan></text><rect x="0" y="0" width="1210" height="610" fill="none" stroke="#e5e7eb" stroke-width="2"/></svg>